
<svg version="1.1" id="logoBox" xmlns="http://www.w3.org/2000/svg" xmlns:xlink="http://www.w3.org/1999/xlink" width="720px" height="720px">

<path id="nameBox" fill="none" fill-rule="evenodd" stroke="#ffffff" d="M 278.328 383.901 C 278.328 383.896 278.328 334.456 278.328 334.451 C 278.345 334.451 446.912 334.451 446.929 334.451 C 446.929 334.456 446.929 383.896 446.929 383.901 C 446.912 383.901 278.345 383.901 278.328 383.901 M 281.322 381.088 C 281.322 381.084 281.322 337.268 281.322 337.264 C 281.339 337.264 443.918 337.264 443.934 337.264 C 443.934 337.268 443.934 381.084 443.934 381.088 C 443.918 381.088 281.339 381.088 281.322 381.088 Z"/>

<path fill="#ffffff" fill-rule="evenodd" stroke="none" d="M 288.947 370.189 C 289.543 370.131 290.139 370.073 290.735 370.015 C 290.842 370.615 291.059 371.056 291.386 371.337 C 291.717 371.619 292.162 371.759 292.720 371.759 C 293.312 371.759 293.757 371.635 294.055 371.387 C 294.357 371.135 294.508 370.841 294.508 370.506 C 294.508 370.291 294.444 370.109 294.315 369.960 C 294.191 369.807 293.972 369.674 293.658 369.562 C 293.442 369.488 292.952 369.356 292.187 369.165 C 291.202 368.921 290.511 368.621 290.114 368.265 C 289.556 367.765 289.276 367.155 289.276 366.435 C 289.276 365.971 289.407 365.539 289.667 365.138 C 289.932 364.732 290.311 364.424 290.803 364.213 C 291.299 364.002 291.897 363.897 292.596 363.897 C 293.738 363.897 294.597 364.147 295.172 364.647 C 295.751 365.148 296.055 365.816 296.084 366.652 C 295.472 366.679 294.859 366.706 294.247 366.733 C 294.168 366.265 293.999 365.930 293.738 365.727 C 293.482 365.520 293.095 365.417 292.578 365.417 C 292.044 365.417 291.626 365.527 291.324 365.746 C 291.130 365.887 291.033 366.075 291.033 366.311 C 291.033 366.526 291.124 366.710 291.306 366.863 C 291.537 367.057 292.100 367.260 292.993 367.471 C 293.887 367.682 294.547 367.901 294.973 368.129 C 295.403 368.352 295.739 368.661 295.978 369.054 C 296.223 369.442 296.345 369.924 296.345 370.500 C 296.345 371.021 296.200 371.509 295.910 371.964 C 295.621 372.419 295.211 372.758 294.681 372.982 C 294.152 373.201 293.492 373.311 292.702 373.311 C 291.552 373.311 290.668 373.046 290.052 372.516 C 289.436 371.983 289.067 371.207 288.947 370.189 Z"/>
<path fill="#ffffff" fill-rule="evenodd" stroke="none" d="M 300.105 366.249 C 299.642 366.766 299.410 367.548 299.410 368.594 C 299.410 369.625 299.648 370.406 300.124 370.940 C 300.600 371.470 301.204 371.734 301.936 371.734 C 302.668 371.734 303.268 371.472 303.736 370.946 C 304.207 370.417 304.443 369.625 304.443 368.570 C 304.443 367.527 304.214 366.749 303.754 366.236 C 303.299 365.723 302.693 365.467 301.936 365.467 C 301.179 365.467 300.569 365.727 300.105 366.249 M 298.715 372.070 C 297.917 371.242 297.517 370.104 297.517 368.656 C 297.517 367.730 297.656 366.952 297.933 366.323 C 298.140 365.860 298.421 365.444 298.777 365.076 C 299.137 364.707 299.530 364.434 299.956 364.257 C 300.523 364.017 301.177 363.897 301.917 363.897 C 303.258 363.897 304.329 364.312 305.132 365.144 C 305.939 365.976 306.342 367.132 306.342 368.613 C 306.342 370.082 305.943 371.232 305.144 372.063 C 304.346 372.891 303.278 373.305 301.942 373.305 C 300.589 373.305 299.514 372.893 298.715 372.070 Z"/>
<path fill="#ffffff" fill-rule="evenodd" stroke="none" d="M 307.788 373.149 C 307.788 370.117 307.788 367.084 307.788 364.052 C 309.867 364.052 311.946 364.052 314.025 364.052 C 314.025 364.565 314.025 365.078 314.025 365.591 C 312.558 365.591 311.091 365.591 309.625 365.591 C 309.625 366.309 309.625 367.026 309.625 367.744 C 310.891 367.744 312.157 367.744 313.423 367.744 C 313.423 368.257 313.423 368.770 313.423 369.283 C 312.157 369.283 310.891 369.283 309.625 369.283 C 309.625 370.572 309.625 371.861 309.625 373.149 C 309.013 373.149 308.400 373.149 307.788 373.149 Z"/>
<path fill="#ffffff" fill-rule="evenodd" stroke="none" d="M 317.587 373.149 C 317.587 370.630 317.587 368.110 317.587 365.591 C 316.687 365.591 315.787 365.591 314.887 365.591 C 314.887 365.078 314.887 364.565 314.887 364.052 C 317.297 364.052 319.707 364.052 322.117 364.052 C 322.117 364.565 322.117 365.078 322.117 365.591 C 321.219 365.591 320.321 365.591 319.424 365.591 C 319.424 368.110 319.424 370.630 319.424 373.149 C 318.811 373.149 318.199 373.149 317.587 373.149 Z"/>
<path fill="#ffffff" fill-rule="evenodd" stroke="none" d="M 324.593 373.149 C 323.869 370.117 323.145 367.084 322.421 364.052 C 323.048 364.052 323.675 364.052 324.301 364.052 C 324.759 366.135 325.216 368.218 325.673 370.301 C 326.227 368.218 326.782 366.135 327.336 364.052 C 328.064 364.052 328.792 364.052 329.521 364.052 C 330.052 366.170 330.584 368.288 331.115 370.406 C 331.581 368.288 332.046 366.170 332.512 364.052 C 333.128 364.052 333.744 364.052 334.361 364.052 C 333.624 367.084 332.888 370.117 332.152 373.149 C 331.502 373.149 330.853 373.149 330.203 373.149 C 329.599 370.882 328.995 368.615 328.391 366.348 C 327.789 368.615 327.187 370.882 326.585 373.149 C 325.921 373.149 325.257 373.149 324.593 373.149 Z"/>
<path fill="#ffffff" fill-rule="evenodd" stroke="none" d="M 337.638 369.550 C 338.465 369.550 339.292 369.550 340.120 369.550 C 339.702 368.425 339.284 367.299 338.866 366.174 C 338.457 367.299 338.047 368.425 337.638 369.550 M 339.859 364.052 C 341.073 367.084 342.288 370.117 343.502 373.149 C 342.836 373.149 342.170 373.149 341.504 373.149 C 341.239 372.461 340.974 371.772 340.709 371.083 C 339.497 371.083 338.285 371.083 337.073 371.083 C 336.823 371.772 336.572 372.461 336.322 373.149 C 335.672 373.149 335.023 373.149 334.373 373.149 C 335.555 370.117 336.736 367.084 337.917 364.052 C 338.564 364.052 339.212 364.052 339.859 364.052 Z"/>
<path fill="#ffffff" fill-rule="evenodd" stroke="none" d="M 346.319 365.591 C 346.319 366.360 346.319 367.130 346.319 367.899 C 346.772 367.899 347.225 367.899 347.678 367.899 C 348.560 367.899 349.110 367.862 349.329 367.788 C 349.548 367.713 349.720 367.585 349.844 367.403 C 349.968 367.221 350.030 366.993 350.030 366.720 C 350.030 366.414 349.948 366.168 349.782 365.982 C 349.621 365.791 349.391 365.671 349.093 365.622 C 348.944 365.601 348.498 365.591 347.753 365.591 C 347.275 365.591 346.797 365.591 346.319 365.591 M 346.319 373.149 C 345.707 373.149 345.095 373.149 344.483 373.149 C 344.483 370.117 344.483 367.084 344.483 364.052 C 345.771 364.052 347.060 364.052 348.349 364.052 C 349.321 364.052 350.026 364.134 350.465 364.300 C 350.908 364.461 351.261 364.751 351.526 365.169 C 351.791 365.587 351.923 366.064 351.923 366.602 C 351.923 367.285 351.723 367.850 351.321 368.296 C 350.920 368.739 350.320 369.018 349.522 369.134 C 349.919 369.366 350.246 369.620 350.502 369.898 C 350.763 370.175 351.112 370.667 351.551 371.375 C 351.921 371.966 352.291 372.558 352.662 373.149 C 351.929 373.149 351.197 373.149 350.465 373.149 C 350.022 372.490 349.579 371.830 349.137 371.170 C 348.665 370.462 348.343 370.018 348.169 369.836 C 347.995 369.649 347.811 369.523 347.616 369.457 C 347.422 369.387 347.114 369.351 346.692 369.351 C 346.568 369.351 346.444 369.351 346.319 369.351 C 346.319 370.617 346.319 371.883 346.319 373.149 Z"/>
<path fill="#ffffff" fill-rule="evenodd" stroke="none" d="M 353.655 373.149 C 353.655 370.117 353.655 367.084 353.655 364.052 C 355.903 364.052 358.152 364.052 360.400 364.052 C 360.400 364.565 360.400 365.078 360.400 365.591 C 358.764 365.591 357.128 365.591 355.492 365.591 C 355.492 366.263 355.492 366.935 355.492 367.608 C 357.014 367.608 358.536 367.608 360.059 367.608 C 360.059 368.119 360.059 368.630 360.059 369.140 C 358.536 369.141 357.014 369.141 355.492 369.140 C 355.492 369.966 355.492 370.791 355.492 371.617 C 357.186 371.617 358.880 371.617 360.574 371.617 C 360.574 372.128 360.574 372.638 360.574 373.149 C 358.268 373.149 355.961 373.149 353.655 373.149 Z"/>
<path fill="#ffffff" fill-rule="evenodd" stroke="none" d="M 365.663 373.149 C 365.663 370.117 365.663 367.084 365.663 364.052 C 367.911 364.052 370.160 364.052 372.408 364.052 C 372.408 364.565 372.408 365.078 372.408 365.591 C 370.772 365.591 369.136 365.591 367.500 365.591 C 367.500 366.263 367.500 366.935 367.500 367.608 C 369.022 367.608 370.545 367.608 372.067 367.608 C 372.067 368.119 372.067 368.630 372.067 369.140 C 370.545 369.141 369.022 369.141 367.500 369.140 C 367.500 369.966 367.500 370.791 367.500 371.617 C 369.194 371.617 370.888 371.617 372.582 371.617 C 372.582 372.128 372.582 372.638 372.582 373.149 C 370.276 373.149 367.969 373.149 365.663 373.149 Z"/>
<path fill="#ffffff" fill-rule="evenodd" stroke="none" d="M 374.158 373.149 C 374.158 370.117 374.158 367.084 374.158 364.052 C 374.754 364.052 375.350 364.052 375.946 364.052 C 377.187 366.077 378.428 368.102 379.669 370.127 C 379.669 368.102 379.669 366.077 379.669 364.052 C 380.238 364.052 380.807 364.052 381.376 364.052 C 381.376 367.084 381.376 370.117 381.376 373.149 C 380.761 373.149 380.147 373.149 379.533 373.149 C 378.310 371.172 377.087 369.194 375.865 367.217 C 375.865 369.194 375.865 371.172 375.865 373.149 C 375.296 373.149 374.727 373.149 374.158 373.149 Z"/>
<path fill="#ffffff" fill-rule="evenodd" stroke="none" d="M 387.550 369.804 C 387.550 369.294 387.550 368.783 387.550 368.272 C 388.870 368.272 390.190 368.272 391.510 368.272 C 391.510 369.480 391.510 370.688 391.510 371.896 C 391.125 372.268 390.566 372.597 389.834 372.883 C 389.106 373.164 388.367 373.305 387.619 373.305 C 386.667 373.305 385.838 373.106 385.130 372.709 C 384.423 372.307 383.891 371.737 383.535 370.996 C 383.179 370.251 383.002 369.442 383.002 368.570 C 383.002 367.622 383.200 366.780 383.597 366.044 C 383.995 365.307 384.576 364.743 385.341 364.350 C 385.924 364.048 386.651 363.897 387.519 363.897 C 388.649 363.897 389.530 364.134 390.163 364.610 C 390.800 365.082 391.210 365.736 391.392 366.571 C 390.784 366.685 390.175 366.799 389.567 366.913 C 389.439 366.466 389.197 366.114 388.841 365.858 C 388.490 365.597 388.049 365.467 387.519 365.467 C 386.717 365.467 386.078 365.721 385.602 366.230 C 385.130 366.739 384.894 367.494 384.894 368.495 C 384.894 369.575 385.134 370.386 385.614 370.928 C 386.094 371.466 386.723 371.734 387.501 371.734 C 387.885 371.734 388.270 371.660 388.655 371.511 C 389.044 371.358 389.377 371.174 389.654 370.959 C 389.654 370.574 389.654 370.189 389.654 369.804 C 388.953 369.805 388.252 369.805 387.550 369.804 Z"/>
<path fill="#ffffff" fill-rule="evenodd" stroke="none" d="M 393.148 373.149 C 393.148 370.117 393.148 367.084 393.148 364.052 C 393.760 364.052 394.373 364.052 394.985 364.052 C 394.985 367.084 394.985 370.117 394.985 373.149 C 394.373 373.149 393.760 373.149 393.148 373.149 Z"/>
<path fill="#ffffff" fill-rule="evenodd" stroke="none" d="M 396.754 373.149 C 396.754 370.117 396.754 367.084 396.754 364.052 C 397.349 364.052 397.945 364.052 398.541 364.052 C 399.782 366.077 401.023 368.102 402.264 370.127 C 402.264 368.102 402.264 366.077 402.264 364.052 C 402.833 364.052 403.402 364.052 403.971 364.052 C 403.971 367.084 403.971 370.117 403.971 373.149 C 403.356 373.149 402.742 373.149 402.128 373.149 C 400.905 371.172 399.683 369.194 398.460 367.217 C 398.460 369.194 398.460 371.172 398.460 373.149 C 397.891 373.149 397.322 373.149 396.754 373.149 Z"/>
<path fill="#ffffff" fill-rule="evenodd" stroke="none" d="M 405.913 373.149 C 405.913 370.117 405.913 367.084 405.913 364.052 C 408.162 364.052 410.410 364.052 412.659 364.052 C 412.659 364.565 412.659 365.078 412.659 365.591 C 411.023 365.591 409.386 365.591 407.750 365.591 C 407.750 366.263 407.750 366.935 407.750 367.608 C 409.272 367.608 410.795 367.608 412.318 367.608 C 412.317 368.119 412.317 368.630 412.318 369.140 C 410.795 369.141 409.273 369.141 407.750 369.140 C 407.750 369.966 407.750 370.791 407.750 371.617 C 409.444 371.617 411.138 371.617 412.833 371.617 C 412.833 372.128 412.833 372.638 412.833 373.149 C 410.526 373.149 408.220 373.149 405.913 373.149 Z"/>
<path fill="#ffffff" fill-rule="evenodd" stroke="none" d="M 414.390 373.149 C 414.390 370.117 414.390 367.084 414.390 364.052 C 416.639 364.052 418.887 364.052 421.136 364.052 C 421.136 364.565 421.136 365.078 421.136 365.591 C 419.500 365.591 417.863 365.591 416.227 365.591 C 416.227 366.263 416.227 366.935 416.227 367.608 C 417.750 367.608 419.272 367.608 420.795 367.608 C 420.794 368.119 420.794 368.630 420.795 369.140 C 419.272 369.141 417.750 369.141 416.227 369.140 C 416.227 369.966 416.227 370.791 416.227 371.617 C 417.921 371.617 419.615 371.617 421.310 371.617 C 421.310 372.128 421.310 372.638 421.310 373.149 C 419.003 373.149 416.697 373.149 414.390 373.149 Z"/>
<path fill="#ffffff" fill-rule="evenodd" stroke="none" d="M 424.710 365.591 C 424.710 366.360 424.710 367.130 424.710 367.899 C 425.163 367.899 425.616 367.899 426.069 367.899 C 426.951 367.899 427.501 367.862 427.720 367.788 C 427.939 367.713 428.111 367.585 428.235 367.403 C 428.359 367.221 428.421 366.993 428.421 366.720 C 428.421 366.414 428.339 366.168 428.173 365.982 C 428.012 365.791 427.782 365.671 427.484 365.622 C 427.335 365.601 426.889 365.591 426.144 365.591 C 425.666 365.591 425.188 365.591 424.710 365.591 M 424.710 373.149 C 424.098 373.149 423.486 373.149 422.873 373.149 C 422.873 370.117 422.873 367.084 422.873 364.052 C 424.162 364.052 425.451 364.052 426.740 364.052 C 427.712 364.052 428.417 364.134 428.856 364.300 C 429.298 364.461 429.652 364.751 429.917 365.169 C 430.182 365.587 430.314 366.064 430.314 366.602 C 430.314 367.285 430.114 367.850 429.712 368.296 C 429.311 368.739 428.711 369.018 427.913 369.134 C 428.310 369.366 428.637 369.620 428.893 369.898 C 429.154 370.175 429.503 370.667 429.942 371.375 C 430.312 371.966 430.682 372.558 431.053 373.149 C 430.320 373.149 429.588 373.149 428.856 373.149 C 428.413 372.490 427.970 371.830 427.528 371.170 C 427.056 370.462 426.733 370.018 426.560 369.836 C 426.386 369.649 426.202 369.523 426.007 369.457 C 425.813 369.387 425.505 369.351 425.083 369.351 C 424.959 369.351 424.834 369.351 424.710 369.351 C 424.710 370.617 424.710 371.883 424.710 373.149 Z"/>

<path fill="#ffffff" fill-rule="evenodd" stroke="none" d="M 303.639 349.563 C 303.242 349.563 302.846 349.563 302.449 349.563 C 302.449 352.457 302.449 355.351 302.449 358.245 C 303.108 358.245 303.767 358.245 304.426 358.245 C 305.165 358.245 305.698 358.204 306.026 358.120 C 306.455 358.013 306.810 357.831 307.090 357.575 C 307.376 357.318 307.609 356.898 307.788 356.314 C 307.967 355.724 308.056 354.922 308.056 353.908 C 308.056 352.895 307.967 352.117 307.788 351.575 C 307.609 351.032 307.358 350.609 307.037 350.305 C 306.715 350.001 306.306 349.795 305.812 349.688 C 305.442 349.604 304.718 349.563 303.639 349.563 M 299.803 360.454 C 299.802 356.084 299.802 351.715 299.803 347.345 C 301.415 347.345 303.028 347.345 304.640 347.345 C 305.731 347.345 306.563 347.428 307.135 347.595 C 307.904 347.822 308.563 348.224 309.111 348.803 C 309.660 349.381 310.077 350.090 310.363 350.931 C 310.649 351.765 310.792 352.797 310.792 354.025 C 310.792 355.104 310.658 356.034 310.390 356.815 C 310.062 357.768 309.594 358.540 308.986 359.131 C 308.527 359.578 307.907 359.926 307.126 360.177 C 306.542 360.362 305.761 360.454 304.783 360.454 C 303.123 360.454 301.463 360.454 299.803 360.454 Z"/>
<path fill="#ffffff" fill-rule="evenodd" stroke="none" d="M 313.037 360.454 C 313.037 356.084 313.037 351.715 313.037 347.345 C 316.277 347.345 319.517 347.345 322.757 347.345 C 322.757 348.084 322.757 348.824 322.757 349.563 C 320.399 349.563 318.041 349.563 315.684 349.563 C 315.683 350.531 315.683 351.500 315.684 352.469 C 317.877 352.469 320.071 352.469 322.265 352.469 C 322.265 353.205 322.265 353.941 322.265 354.677 C 320.071 354.677 317.877 354.677 315.684 354.677 C 315.683 355.867 315.683 357.056 315.684 358.245 C 318.125 358.245 320.566 358.245 323.007 358.245 C 323.007 358.982 323.007 359.718 323.007 360.454 C 319.683 360.454 316.360 360.454 313.037 360.454 Z"/>
<path fill="#ffffff" fill-rule="evenodd" stroke="none" d="M 327.907 349.563 C 327.907 350.672 327.907 351.780 327.907 352.889 C 328.560 352.889 329.213 352.889 329.866 352.889 C 331.135 352.889 331.928 352.835 332.244 352.728 C 332.560 352.621 332.807 352.436 332.986 352.174 C 333.165 351.911 333.255 351.583 333.255 351.190 C 333.255 350.749 333.135 350.394 332.897 350.126 C 332.664 349.852 332.333 349.679 331.904 349.607 C 331.690 349.578 331.046 349.563 329.973 349.563 C 329.284 349.563 328.596 349.563 327.907 349.563 M 327.907 360.454 C 327.025 360.454 326.143 360.454 325.260 360.454 C 325.260 356.084 325.260 351.715 325.260 347.345 C 327.117 347.345 328.974 347.345 330.831 347.345 C 332.232 347.345 333.249 347.464 333.880 347.703 C 334.518 347.935 335.028 348.352 335.410 348.955 C 335.791 349.557 335.982 350.245 335.982 351.020 C 335.982 352.004 335.693 352.817 335.114 353.461 C 334.536 354.099 333.672 354.502 332.521 354.668 C 333.094 355.002 333.564 355.369 333.934 355.768 C 334.310 356.168 334.813 356.877 335.445 357.897 C 335.979 358.749 336.512 359.601 337.046 360.454 C 335.991 360.454 334.936 360.454 333.880 360.454 C 333.243 359.503 332.605 358.552 331.967 357.601 C 331.287 356.582 330.822 355.941 330.572 355.679 C 330.322 355.411 330.056 355.229 329.776 355.133 C 329.496 355.032 329.052 354.981 328.444 354.981 C 328.265 354.982 328.086 354.982 327.907 354.981 C 327.907 356.806 327.907 358.630 327.907 360.454 Z"/>
<path fill="#ffffff" fill-rule="evenodd" stroke="none" d="M 338.477 360.454 C 338.477 356.084 338.477 351.715 338.477 347.345 C 341.717 347.345 344.957 347.345 348.197 347.345 C 348.196 348.084 348.196 348.824 348.197 349.563 C 345.839 349.563 343.481 349.563 341.123 349.563 C 341.123 350.531 341.123 351.500 341.123 352.469 C 343.317 352.469 345.511 352.469 347.705 352.469 C 347.705 353.205 347.705 353.941 347.705 354.677 C 345.511 354.677 343.317 354.677 341.123 354.677 C 341.123 355.867 341.123 357.056 341.123 358.245 C 343.565 358.245 346.006 358.245 348.447 358.245 C 348.447 358.982 348.447 359.718 348.447 360.454 C 345.123 360.454 341.800 360.454 338.477 360.454 Z"/>
<path fill="#ffffff" fill-rule="evenodd" stroke="none" d="M 350.727 360.454 C 350.727 356.084 350.727 351.715 350.727 347.345 C 351.609 347.345 352.492 347.345 353.374 347.345 C 353.374 349.286 353.374 351.226 353.374 353.166 C 355.156 351.226 356.939 349.286 358.721 347.345 C 359.908 347.345 361.094 347.345 362.280 347.345 C 360.635 349.047 358.989 350.749 357.344 352.451 C 359.079 355.119 360.814 357.786 362.548 360.454 C 361.407 360.454 360.265 360.454 359.124 360.454 C 357.922 358.403 356.721 356.353 355.520 354.302 C 354.805 355.032 354.089 355.762 353.374 356.493 C 353.374 357.813 353.374 359.134 353.374 360.454 C 352.492 360.454 351.609 360.454 350.727 360.454 Z"/>
<path fill="#ffffff" fill-rule="evenodd" stroke="none" d="M 371.660 349.563 C 371.660 350.672 371.660 351.780 371.660 352.889 C 372.313 352.889 372.966 352.889 373.619 352.889 C 374.888 352.889 375.681 352.835 375.997 352.728 C 376.313 352.621 376.561 352.436 376.739 352.174 C 376.918 351.911 377.008 351.583 377.008 351.190 C 377.008 350.749 376.888 350.394 376.650 350.126 C 376.417 349.852 376.087 349.679 375.657 349.607 C 375.443 349.578 374.799 349.563 373.726 349.563 C 373.037 349.563 372.349 349.563 371.660 349.563 M 371.660 360.454 C 370.778 360.454 369.896 360.454 369.014 360.454 C 369.014 356.084 369.014 351.715 369.014 347.345 C 370.870 347.345 372.727 347.345 374.584 347.345 C 375.985 347.345 377.002 347.464 377.634 347.703 C 378.271 347.935 378.781 348.352 379.163 348.955 C 379.544 349.557 379.735 350.245 379.735 351.020 C 379.735 352.004 379.446 352.817 378.868 353.461 C 378.289 354.099 377.425 354.502 376.274 354.668 C 376.847 355.002 377.318 355.369 377.687 355.768 C 378.063 356.168 378.567 356.877 379.198 357.897 C 379.732 358.749 380.265 359.601 380.799 360.454 C 379.744 360.454 378.689 360.454 377.634 360.454 C 376.996 359.503 376.358 358.552 375.720 357.601 C 375.040 356.582 374.575 355.941 374.325 355.679 C 374.075 355.411 373.809 355.229 373.529 355.133 C 373.249 355.032 372.805 354.981 372.197 354.981 C 372.018 354.982 371.839 354.982 371.660 354.981 C 371.660 356.806 371.660 358.630 371.660 360.454 Z"/>
<path fill="#ffffff" fill-rule="evenodd" stroke="none" d="M 385.422 350.510 C 384.754 351.256 384.421 352.382 384.421 353.891 C 384.421 355.375 384.763 356.502 385.449 357.271 C 386.134 358.034 387.005 358.415 388.060 358.415 C 389.115 358.415 389.980 358.037 390.653 357.280 C 391.333 356.516 391.673 355.375 391.673 353.855 C 391.673 352.353 391.342 351.232 390.680 350.493 C 390.024 349.753 389.151 349.384 388.060 349.384 C 386.969 349.384 386.090 349.759 385.422 350.510 M 383.419 358.898 C 382.269 357.706 381.693 356.066 381.693 353.980 C 381.693 352.645 381.893 351.524 382.292 350.618 C 382.590 349.950 382.996 349.351 383.508 348.820 C 384.027 348.290 384.593 347.896 385.207 347.640 C 386.024 347.294 386.966 347.121 388.033 347.121 C 389.965 347.121 391.509 347.721 392.665 348.919 C 393.828 350.117 394.409 351.783 394.409 353.917 C 394.409 356.034 393.834 357.691 392.683 358.889 C 391.532 360.081 389.994 360.677 388.069 360.677 C 386.120 360.677 384.570 360.084 383.419 358.898 Z"/>
<path fill="#ffffff" fill-rule="evenodd" stroke="none" d="M 399.667 350.510 C 398.999 351.256 398.665 352.382 398.665 353.891 C 398.665 355.375 399.008 356.502 399.694 357.271 C 400.379 358.034 401.249 358.415 402.305 358.415 C 403.360 358.415 404.224 358.037 404.898 357.280 C 405.577 356.516 405.917 355.375 405.917 353.855 C 405.917 352.353 405.586 351.232 404.925 350.493 C 404.269 349.753 403.395 349.384 402.305 349.384 C 401.214 349.384 400.334 349.759 399.667 350.510 M 397.664 358.898 C 396.513 357.706 395.938 356.066 395.938 353.980 C 395.938 352.645 396.138 351.524 396.537 350.618 C 396.835 349.950 397.240 349.351 397.753 348.820 C 398.272 348.290 398.838 347.896 399.452 347.640 C 400.269 347.294 401.211 347.121 402.278 347.121 C 404.209 347.121 405.753 347.721 406.910 348.919 C 408.072 350.117 408.653 351.783 408.653 353.917 C 408.653 356.034 408.078 357.691 406.928 358.889 C 405.777 360.081 404.239 360.677 402.314 360.677 C 400.364 360.677 398.814 360.084 397.664 358.898 Z"/>
<path fill="#ffffff" fill-rule="evenodd" stroke="none" d="M 413.670 360.454 C 413.670 356.824 413.670 353.193 413.670 349.563 C 412.373 349.563 411.077 349.563 409.780 349.563 C 409.780 348.824 409.780 348.084 409.780 347.345 C 413.253 347.345 416.725 347.345 420.197 347.345 C 420.197 348.084 420.197 348.824 420.197 349.563 C 418.904 349.563 417.610 349.563 416.317 349.563 C 416.317 353.193 416.317 356.824 416.317 360.454 C 415.434 360.454 414.552 360.454 413.670 360.454 Z"/>

</svg>
