<?xml version="1.0" encoding="utf-8"?>
<!-- Generator: Moho 13.0.3 build 643 -->
<!DOCTYPE svg PUBLIC "-//W3C//DTD SVG 1.1//EN" "http://www.w3.org/Graphics/SVG/1.1/DTD/svg11.dtd">
<svg version="1.1" id="Frame_1" xmlns="http://www.w3.org/2000/svg" xmlns:xlink="http://www.w3.org/1999/xlink" width="720px" height="720px">
<g id="Layer_14">
<g id="satellite_2">
<path fill="#8a8a8a" fill-rule="evenodd" stroke="none" d="M 33.104 165.270 C 33.106 165.268 53.649 138.091 53.652 138.089 C 53.653 138.089 64.851 146.554 64.852 146.555 C 64.850 146.558 44.307 173.734 44.305 173.737 C 44.304 173.736 33.105 165.271 33.104 165.270 Z"/>
<path fill="#8a8a8a" fill-rule="evenodd" stroke="none" d="M 52.238 133.240 C 52.238 133.239 58.237 125.303 58.238 125.302 C 58.240 125.303 77.480 139.847 77.482 139.848 C 77.481 139.849 71.482 147.786 71.481 147.787 C 71.479 147.785 52.240 133.241 52.238 133.240 Z"/>
<path fill="#8a8a8a" fill-rule="evenodd" stroke="none" d="M 72.010 150.712 C 71.970 146.826 76.494 140.840 80.244 139.819 C 82.440 139.221 87.841 142.314 87.842 142.314 C 87.841 142.315 76.484 157.340 76.483 157.341 C 76.482 157.341 72.034 152.988 72.010 150.712 Z"/>
<path fill="#8a8a8a" fill-rule="evenodd" stroke="none" d="M 63.021 125.694 C 63.023 125.691 83.566 98.515 83.568 98.512 C 83.569 98.513 94.767 106.978 94.769 106.979 C 94.767 106.982 74.223 134.158 74.221 134.161 C 74.220 134.160 63.022 125.695 63.021 125.694 Z"/>
<path fill="#8a8a8a" fill-rule="evenodd" stroke="none" d="M 49.913 128.756 C 49.914 128.755 53.290 124.289 53.290 124.289 C 53.291 124.289 56.562 126.762 56.562 126.762 C 56.562 126.763 53.186 131.229 53.186 131.229 C 53.185 131.229 49.914 128.756 49.913 128.756 Z"/>
<path fill="#8a8a8a" fill-rule="evenodd" stroke="none" d="M 83.051 150.396 C 83.784 149.427 84.728 149.345 85.262 149.748 C 85.795 150.151 85.974 151.082 85.240 152.052 C 84.507 153.022 83.563 153.104 83.030 152.700 C 82.496 152.297 82.318 151.366 83.051 150.396 Z"/>
</g>
</g>
</svg>
