<?xml version="1.0" encoding="utf-8"?>
<!-- Generator: Moho 13.0.3 build 643 -->
<!DOCTYPE svg PUBLIC "-//W3C//DTD SVG 1.1//EN" "http://www.w3.org/Graphics/SVG/1.1/DTD/svg11.dtd">
<svg version="1.1" id="Frame_1" xmlns="http://www.w3.org/2000/svg" xmlns:xlink="http://www.w3.org/1999/xlink" width="720px" height="720px">
<g id="Layer_14">
<g id="Layer_19">
<g id="BUILDING_A">
<path fill="#3a3a3a" fill-rule="evenodd" stroke="none" d="M 316.764 149.820 C 316.768 149.820 364.038 145.459 364.043 145.459 C 364.044 145.469 373.005 242.613 373.006 242.623 C 373.001 242.623 325.732 246.984 325.727 246.984 C 325.726 246.974 316.765 149.830 316.764 149.820 Z"/>
<path fill="#3a3a3a" fill-rule="evenodd" stroke="none" d="M 319.248 135.287 C 319.252 135.287 358.587 131.658 358.591 131.658 C 358.591 131.659 359.959 146.482 359.959 146.484 C 359.955 146.484 320.619 150.113 320.615 150.113 C 320.615 150.112 319.248 135.289 319.248 135.287 Z"/>
<path fill="#3a3a3a" fill-rule="evenodd" stroke="none" d="M 322.250 239.298 C 322.255 239.298 374.663 234.463 374.668 234.462 C 374.668 234.463 375.449 242.924 375.449 242.925 C 375.444 242.925 323.035 247.760 323.030 247.760 C 323.030 247.760 322.250 239.299 322.250 239.298 Z"/>
<path fill="#3a3a3a" fill-rule="evenodd" stroke="none" d="M 321.644 232.730 C 321.649 232.729 374.057 227.895 374.062 227.894 C 374.062 227.895 374.435 231.933 374.435 231.933 C 374.430 231.934 322.021 236.769 322.016 236.769 C 322.016 236.769 321.644 232.730 321.644 232.730 Z"/>
<path fill="#3a3a3a" fill-rule="evenodd" stroke="none" d="M 324.740 120.075 C 324.743 120.075 350.406 117.708 350.408 117.707 C 350.408 117.709 351.776 132.532 351.776 132.533 C 351.773 132.534 326.111 134.901 326.108 134.901 C 326.108 134.900 324.741 120.077 324.740 120.075 Z"/>
<path fill="#3a3a3a" fill-rule="evenodd" stroke="none" d="M 338.695 114.738 C 338.696 114.738 349.080 113.780 349.081 113.780 C 349.081 113.780 349.482 118.124 349.482 118.124 C 349.481 118.124 339.097 119.082 339.095 119.082 C 339.095 119.082 338.695 114.739 338.695 114.738 Z"/>
<path fill="#3a3a3a" fill-rule="evenodd" stroke="none" d="M 332.699 117.233 C 332.700 117.233 339.192 116.634 339.192 116.634 C 339.192 116.635 339.443 119.350 339.443 119.350 C 339.442 119.350 332.951 119.949 332.950 119.949 C 332.950 119.948 332.699 117.234 332.699 117.233 Z"/>
</g>
<g id="BUILDING_A_2">
<path fill="#3a3a3a" fill-rule="evenodd" stroke="none" d="M 294.078 567.459 C 294.074 567.457 250.649 548.282 250.645 548.280 C 250.649 548.271 290.056 459.028 290.060 459.019 C 290.064 459.021 333.489 478.196 333.494 478.198 C 333.490 478.207 294.082 567.450 294.078 567.459 Z"/>
<path fill="#3a3a3a" fill-rule="evenodd" stroke="none" d="M 284.841 578.951 C 284.837 578.949 248.701 562.992 248.697 562.991 C 248.698 562.989 254.711 549.372 254.711 549.371 C 254.715 549.372 290.851 565.329 290.855 565.331 C 290.854 565.332 284.841 578.950 284.841 578.951 Z"/>
<path fill="#3a3a3a" fill-rule="evenodd" stroke="none" d="M 332.795 486.605 C 332.790 486.603 284.644 465.343 284.640 465.341 C 284.640 465.340 288.072 457.568 288.072 457.567 C 288.077 457.569 336.223 478.829 336.228 478.831 C 336.227 478.832 332.795 486.605 332.795 486.605 Z"/>
<path fill="#3a3a3a" fill-rule="evenodd" stroke="none" d="M 330.130 492.640 C 330.126 492.637 281.980 471.377 281.975 471.375 C 281.975 471.375 283.613 467.665 283.614 467.665 C 283.618 467.667 331.764 488.927 331.769 488.929 C 331.769 488.929 330.131 492.639 330.130 492.640 Z"/>
<path fill="#3a3a3a" fill-rule="evenodd" stroke="none" d="M 272.644 589.572 C 272.642 589.571 249.066 579.161 249.064 579.160 C 249.064 579.158 255.077 565.541 255.078 565.540 C 255.080 565.541 278.656 575.951 278.658 575.952 C 278.658 575.953 272.645 589.571 272.644 589.572 Z"/>
<path fill="#3a3a3a" fill-rule="evenodd" stroke="none" d="M 257.855 587.450 C 257.854 587.450 248.315 583.237 248.314 583.237 C 248.314 583.237 250.076 579.247 250.076 579.246 C 250.077 579.247 259.616 583.459 259.617 583.459 C 259.617 583.460 257.855 587.450 257.855 587.450 Z"/>
<path fill="#3a3a3a" fill-rule="evenodd" stroke="none" d="M 264.307 588.185 C 264.307 588.185 258.343 585.552 258.343 585.551 C 258.343 585.551 259.444 583.057 259.444 583.057 C 259.445 583.057 265.408 585.690 265.409 585.691 C 265.409 585.691 264.307 588.185 264.307 588.185 Z"/>
</g>
<g id="BUILDING_A_3">
<path fill="#3a3a3a" fill-rule="evenodd" stroke="none" d="M 573.889 377.008 C 573.888 377.013 565.004 423.644 565.003 423.649 C 564.993 423.647 469.160 405.390 469.151 405.388 C 469.152 405.383 478.036 358.752 478.037 358.747 C 478.046 358.749 573.879 377.006 573.889 377.008 Z"/>
<path fill="#3a3a3a" fill-rule="evenodd" stroke="none" d="M 587.168 383.415 C 587.167 383.419 579.774 422.224 579.774 422.228 C 579.772 422.227 565.149 419.441 565.148 419.441 C 565.149 419.437 572.542 380.633 572.542 380.629 C 572.544 380.629 587.167 383.415 587.168 383.415 Z"/>
<path fill="#3a3a3a" fill-rule="evenodd" stroke="none" d="M 486.385 357.531 C 486.384 357.536 476.534 409.237 476.533 409.242 C 476.532 409.242 468.186 407.652 468.185 407.652 C 468.186 407.647 478.036 355.946 478.037 355.940 C 478.037 355.941 486.384 357.531 486.385 357.531 Z"/>
<path fill="#3a3a3a" fill-rule="evenodd" stroke="none" d="M 492.864 358.765 C 492.863 358.771 483.014 410.471 483.013 410.477 C 483.012 410.477 479.028 409.718 479.028 409.717 C 479.029 409.712 488.879 358.011 488.879 358.006 C 488.880 358.006 492.864 358.765 492.864 358.765 Z"/>
<path fill="#3a3a3a" fill-rule="evenodd" stroke="none" d="M 600.267 392.901 C 600.267 392.904 595.444 418.220 595.443 418.222 C 595.442 418.222 580.819 415.436 580.817 415.436 C 580.818 415.433 585.641 390.117 585.641 390.115 C 585.643 390.115 600.266 392.901 600.267 392.901 Z"/>
<path fill="#3a3a3a" fill-rule="evenodd" stroke="none" d="M 601.536 407.787 C 601.536 407.788 599.585 418.032 599.584 418.033 C 599.584 418.033 595.299 417.217 595.299 417.217 C 595.299 417.216 597.251 406.972 597.251 406.971 C 597.251 406.971 601.536 407.787 601.536 407.787 Z"/>
<path fill="#3a3a3a" fill-rule="evenodd" stroke="none" d="M 600.797 401.336 C 600.797 401.336 599.577 407.740 599.577 407.741 C 599.576 407.741 596.898 407.230 596.898 407.230 C 596.898 407.230 598.118 400.826 598.118 400.825 C 598.118 400.825 600.797 401.336 600.797 401.336 Z"/>
</g>
<g id="BUILDING_B">
<path fill="#3a3a3a" fill-rule="evenodd" stroke="none" d="M 517.108 161.833 C 517.111 161.836 549.269 192.131 549.273 192.134 C 549.263 192.144 455.520 291.652 455.510 291.662 C 455.507 291.659 423.349 261.364 423.346 261.361 C 423.355 261.351 517.099 161.842 517.108 161.833 Z"/>
<path fill="#3a3a3a" fill-rule="evenodd" stroke="none" d="M 534.835 173.785 C 534.836 173.786 547.009 185.253 547.010 185.254 C 547.010 185.255 543.702 188.766 543.702 188.767 C 543.701 188.765 531.528 177.298 531.526 177.297 C 531.527 177.296 534.835 173.785 534.835 173.785 Z"/>
</g>
<g id="BUILDING_B_2">
<path fill="#3a3a3a" fill-rule="evenodd" stroke="none" d="M 554.127 477.063 C 554.125 477.066 534.023 505.380 534.021 505.383 C 534.012 505.376 446.398 443.173 446.389 443.167 C 446.391 443.164 466.493 414.850 466.495 414.847 C 466.504 414.854 554.118 477.056 554.127 477.063 Z"/>
<path fill="#3a3a3a" fill-rule="evenodd" stroke="none" d="M 546.742 492.157 C 546.741 492.158 539.132 502.876 539.131 502.877 C 539.131 502.876 536.039 500.682 536.039 500.681 C 536.039 500.680 543.649 489.962 543.649 489.961 C 543.650 489.962 546.741 492.157 546.742 492.157 Z"/>
</g>
<g id="BUILDING_B_3">
<path fill="#3a3a3a" fill-rule="evenodd" stroke="none" d="M 204.785 533.913 C 204.782 533.911 179.291 507.371 179.288 507.369 C 179.297 507.361 261.418 428.483 261.426 428.475 C 261.429 428.478 286.920 455.017 286.923 455.019 C 286.914 455.027 204.793 533.905 204.785 533.913 Z"/>
<path fill="#3a3a3a" fill-rule="evenodd" stroke="none" d="M 190.535 523.233 C 190.534 523.232 180.885 513.186 180.884 513.185 C 180.884 513.185 183.782 510.402 183.783 510.402 C 183.784 510.403 193.433 520.448 193.434 520.449 C 193.433 520.450 190.535 523.233 190.535 523.233 Z"/>
</g>
<g id="BUILDING_C">
<path fill="#616161" fill-rule="evenodd" stroke="none" d="M 470.903 137.138 C 470.904 137.143 489.882 189.310 489.884 189.315 C 489.879 189.323 438.114 274.094 438.109 274.103 C 438.105 274.101 401.079 251.491 401.075 251.488 C 401.082 251.477 470.896 137.150 470.903 137.138 Z"/>
</g>
<g id="BUILDING_C_2">
<path fill="#616161" fill-rule="evenodd" stroke="none" d="M 241.180 547.353 C 241.179 547.349 230.047 504.580 230.046 504.575 C 230.050 504.569 277.432 441.260 277.437 441.254 C 277.440 441.256 305.092 461.951 305.095 461.953 C 305.088 461.962 241.186 547.344 241.180 547.353 Z"/>
</g>
<g id="BUILDING_C_3">
<path fill="#616161" fill-rule="evenodd" stroke="none" d="M 574.913 418.362 C 574.910 418.364 538.185 441.247 538.181 441.249 C 538.174 441.246 465.179 415.434 465.172 415.431 C 465.173 415.428 476.447 383.545 476.449 383.542 C 476.458 383.545 574.903 418.358 574.913 418.362 Z"/>
</g>
</g>
<g id="BUILDINGS">
<path fill="#919191" fill-rule="evenodd" stroke="none" d="M 371.292 172.323 C 371.296 172.323 410.647 178.610 410.651 178.611 C 410.650 178.618 399.434 248.823 399.432 248.830 C 399.429 248.829 360.078 242.542 360.074 242.542 C 360.075 242.535 371.291 172.330 371.292 172.323 Z"/>
<path fill="#bdb9b9" fill-rule="evenodd" stroke="none" d="M 398.865 196.755 C 398.868 196.756 427.156 203.599 427.158 203.599 C 427.157 203.604 414.949 254.072 414.948 254.077 C 414.945 254.077 386.657 247.234 386.654 247.234 C 386.655 247.228 398.864 196.760 398.865 196.755 Z"/>
<path fill="#919191" fill-rule="evenodd" stroke="none" d="M 288.266 228.587 C 288.271 228.585 337.765 212.854 337.770 212.853 C 337.771 212.856 347.350 245.006 347.351 245.009 C 347.346 245.011 297.853 260.742 297.848 260.743 C 297.847 260.740 288.267 228.590 288.266 228.587 Z"/>
<path fill="#919191" fill-rule="evenodd" stroke="none" d="M 289.744 213.752 C 289.747 213.751 326.261 202.146 326.264 202.145 C 326.265 202.147 333.332 225.865 333.333 225.867 C 333.329 225.868 296.816 237.474 296.812 237.475 C 296.812 237.472 289.744 213.755 289.744 213.752 Z"/>
<path fill="#bdb9b9" fill-rule="evenodd" stroke="none" d="M 303.222 444.556 C 303.225 444.558 327.840 460.087 327.842 460.088 C 327.839 460.092 300.134 504.007 300.131 504.012 C 300.129 504.010 275.514 488.481 275.512 488.480 C 275.515 488.475 303.220 444.560 303.222 444.556 Z"/>
<path fill="#bdb9b9" fill-rule="evenodd" stroke="none" d="M 378.409 469.501 C 378.412 469.500 405.578 459.058 405.581 459.057 C 405.582 459.062 424.211 507.529 424.213 507.534 C 424.211 507.535 397.045 517.977 397.042 517.978 C 397.040 517.973 378.411 469.506 378.409 469.501 Z"/>
<path fill="#bdb9b9" fill-rule="evenodd" stroke="none" d="M 273.220 333.090 C 273.220 333.093 270.426 362.062 270.426 362.065 C 270.421 362.065 218.737 357.080 218.732 357.080 C 218.732 357.077 221.526 328.108 221.526 328.105 C 221.531 328.106 273.215 333.089 273.220 333.090 Z"/>
<path fill="#bdb9b9" fill-rule="evenodd" stroke="none" d="M 542.744 336.312 C 542.745 336.315 544.541 365.364 544.542 365.367 C 544.535 365.367 474.899 369.623 474.892 369.623 C 474.892 369.621 473.095 340.572 473.095 340.570 C 473.102 340.569 542.737 336.313 542.744 336.312 Z"/>
<path fill="#bdb9b9" fill-rule="evenodd" stroke="none" d="M 507.062 422.005 C 507.061 422.008 493.927 447.980 493.925 447.982 C 493.919 447.979 431.685 416.449 431.679 416.446 C 431.680 416.444 444.814 390.472 444.815 390.469 C 444.821 390.473 507.056 422.002 507.062 422.005 Z"/>
<path fill="#919191" fill-rule="evenodd" stroke="none" d="M 533.756 320.811 C 533.756 320.815 534.595 360.656 534.595 360.660 C 534.588 360.660 463.509 362.157 463.502 362.157 C 463.501 362.153 462.662 322.312 462.662 322.308 C 462.669 322.308 533.749 320.811 533.756 320.811 Z"/>
<path fill="#919191" fill-rule="evenodd" stroke="none" d="M 356.220 441.833 C 356.224 441.833 395.743 436.711 395.747 436.711 C 395.748 436.718 404.885 507.223 404.886 507.230 C 404.882 507.231 365.363 512.352 365.359 512.353 C 365.358 512.346 356.221 441.840 356.220 441.833 Z"/>
<path fill="#919191" fill-rule="evenodd" stroke="none" d="M 270.564 350.388 C 270.564 350.392 270.259 390.240 270.259 390.244 C 270.251 390.244 199.159 389.700 199.152 389.700 C 199.152 389.696 199.457 349.847 199.457 349.843 C 199.464 349.843 270.557 350.388 270.564 350.388 Z"/>
<path fill="#919191" fill-rule="evenodd" stroke="none" d="M 501.112 460.731 C 501.110 460.734 477.105 492.542 477.103 492.545 C 477.097 492.541 420.348 449.715 420.343 449.710 C 420.345 449.707 444.350 417.899 444.352 417.896 C 444.358 417.900 501.107 460.727 501.112 460.731 Z"/>
</g>
<g id="trees">
<g id="TREE">
<path fill="#898787" fill-rule="evenodd" stroke="none" d="M 379.354 209.367 C 379.353 209.369 369.771 228.723 369.770 228.725 C 369.770 228.725 373.735 227.545 373.735 227.545 C 373.734 227.546 365.159 238.850 365.158 238.851 C 365.159 238.851 373.795 237.925 373.796 237.925 C 373.796 237.926 373.142 245.899 373.141 245.900 C 373.142 245.900 376.123 246.273 376.123 246.273 C 376.123 246.273 377.563 238.461 377.563 238.460 C 377.564 238.460 385.281 240.411 385.282 240.411 C 385.281 240.410 380.547 228.778 380.547 228.777 C 380.547 228.777 383.838 230.277 383.839 230.277 C 383.838 230.275 379.354 209.370 379.354 209.367 Z"/>
<path fill="#4c4c4c" fill-rule="evenodd" stroke="none" d="M 390.292 206.206 C 390.290 206.208 376.996 227.004 376.995 227.006 C 376.995 227.006 381.646 226.159 381.646 226.159 C 381.645 226.160 370.496 237.936 370.495 237.938 C 370.496 237.938 380.423 237.959 380.424 237.960 C 380.424 237.960 378.689 246.938 378.689 246.939 C 378.689 246.939 382.029 247.735 382.029 247.735 C 382.030 247.734 384.637 239.037 384.637 239.036 C 384.638 239.037 393.164 242.214 393.164 242.214 C 393.164 242.213 389.233 228.407 389.232 228.406 C 389.233 228.406 392.785 230.520 392.786 230.520 C 392.786 230.518 390.292 206.208 390.292 206.206 Z"/>
<path fill="#5f635f" fill-rule="evenodd" stroke="none" d="M 366.901 211.278 C 366.900 211.279 360.455 229.167 360.454 229.169 C 360.454 229.169 363.739 228.433 363.739 228.433 C 363.739 228.435 357.145 239.650 357.145 239.651 C 357.146 239.651 364.910 237.878 364.911 237.878 C 364.911 237.879 365.172 245.210 365.172 245.210 C 365.173 245.210 367.927 245.230 367.927 245.230 C 367.927 245.230 368.398 237.962 368.398 237.961 C 368.399 237.961 375.636 238.908 375.636 238.908 C 375.636 238.907 370.075 228.824 370.074 228.823 C 370.074 228.823 373.005 229.406 373.006 229.406 C 373.005 229.404 366.901 211.279 366.901 211.278 Z"/>
</g>
<g id="TREE_2">
<path fill="#898787" fill-rule="evenodd" stroke="none" d="M 451.889 239.017 C 451.887 239.018 433.916 250.994 433.914 250.995 C 433.914 250.995 437.938 251.954 437.938 251.954 C 437.937 251.955 424.860 257.461 424.858 257.461 C 424.859 257.462 432.803 260.975 432.804 260.976 C 432.803 260.976 428.252 267.556 428.251 267.556 C 428.252 267.557 430.647 269.370 430.647 269.370 C 430.648 269.370 435.798 263.322 435.799 263.322 C 435.800 263.322 441.509 268.869 441.510 268.869 C 441.510 268.868 443.222 256.427 443.223 256.425 C 443.223 256.426 445.324 259.370 445.324 259.370 C 445.325 259.368 451.888 239.019 451.889 239.017 Z"/>
<path fill="#4c4c4c" fill-rule="evenodd" stroke="none" d="M 462.943 241.745 C 462.941 241.746 441.033 253.115 441.031 253.117 C 441.031 253.117 445.483 254.707 445.483 254.708 C 445.482 254.708 429.939 259.337 429.938 259.337 C 429.939 259.338 438.527 264.318 438.528 264.318 C 438.527 264.319 432.538 271.228 432.537 271.229 C 432.537 271.229 435.033 273.587 435.033 273.587 C 435.034 273.587 441.638 267.357 441.639 267.356 C 441.639 267.357 447.436 274.369 447.437 274.370 C 447.437 274.368 450.931 260.446 450.931 260.445 C 450.931 260.445 452.952 264.052 452.952 264.052 C 452.953 264.050 462.942 241.747 462.943 241.745 Z"/>
<path fill="#5f635f" fill-rule="evenodd" stroke="none" d="M 440.148 234.449 C 440.146 234.450 425.624 246.723 425.623 246.724 C 425.623 246.725 428.836 247.729 428.836 247.729 C 428.835 247.730 417.519 254.149 417.518 254.150 C 417.519 254.150 425.130 256.495 425.131 256.495 C 425.130 256.496 421.693 262.976 421.693 262.977 C 421.693 262.977 424.069 264.371 424.069 264.371 C 424.070 264.370 428.110 258.310 428.110 258.310 C 428.111 258.310 433.906 262.747 433.906 262.747 C 433.907 262.746 434.128 251.233 434.128 251.232 C 434.128 251.232 436.376 253.202 436.376 253.202 C 436.377 253.200 440.147 234.451 440.148 234.449 Z"/>
</g>
<g id="TREE_3">
<path fill="#898787" fill-rule="evenodd" stroke="none" d="M 501.109 416.280 C 501.107 416.279 484.764 402.163 484.762 402.161 C 484.762 402.162 484.913 406.295 484.913 406.295 C 484.912 406.294 476.111 395.165 476.110 395.164 C 476.110 395.165 474.848 403.759 474.848 403.760 C 474.847 403.759 467.290 401.132 467.290 401.132 C 467.289 401.132 466.182 403.925 466.182 403.926 C 466.183 403.926 473.387 407.273 473.388 407.273 C 473.387 407.274 469.569 414.258 469.569 414.259 C 469.570 414.259 482.016 412.583 482.018 412.583 C 482.017 412.583 479.742 415.395 479.742 415.395 C 479.744 415.395 501.107 416.280 501.109 416.280 Z"/>
<path fill="#4c4c4c" fill-rule="evenodd" stroke="none" d="M 501.436 427.661 C 501.434 427.659 484.622 409.588 484.620 409.586 C 484.620 409.587 484.277 414.302 484.277 414.302 C 484.276 414.301 475.661 400.561 475.661 400.560 C 475.660 400.561 473.157 410.168 473.157 410.169 C 473.156 410.168 464.897 406.244 464.897 406.243 C 464.896 406.244 463.291 409.279 463.291 409.279 C 463.292 409.280 471.060 413.978 471.061 413.979 C 471.061 413.979 465.853 421.440 465.853 421.441 C 465.854 421.441 480.204 421.085 480.205 421.085 C 480.205 421.085 477.270 423.997 477.270 423.997 C 477.272 423.998 501.433 427.661 501.436 427.661 Z"/>
<path fill="#5f635f" fill-rule="evenodd" stroke="none" d="M 502.372 403.745 C 502.371 403.744 486.662 393.031 486.661 393.030 C 486.661 393.030 486.552 396.395 486.552 396.395 C 486.551 396.394 477.340 387.206 477.339 387.206 C 477.339 387.206 477.114 395.167 477.114 395.168 C 477.113 395.168 469.950 393.588 469.949 393.588 C 469.949 393.589 469.241 396.250 469.241 396.251 C 469.242 396.251 476.162 398.524 476.162 398.524 C 476.162 398.525 473.436 405.295 473.436 405.296 C 473.437 405.295 484.590 402.431 484.591 402.431 C 484.591 402.431 483.294 405.124 483.293 405.124 C 483.295 405.124 502.371 403.745 502.372 403.745 Z"/>
</g>
<g id="TREE_4">
<path fill="#898787" fill-rule="evenodd" stroke="none" d="M 483.808 448.046 C 483.807 448.044 471.276 430.456 471.274 430.454 C 471.274 430.455 470.441 434.506 470.441 434.506 C 470.441 434.505 464.529 421.607 464.528 421.605 C 464.528 421.606 461.264 429.656 461.264 429.657 C 461.263 429.656 454.545 425.313 454.544 425.312 C 454.544 425.313 452.806 427.763 452.806 427.764 C 452.807 427.764 459.012 432.723 459.013 432.724 C 459.012 432.724 453.647 438.605 453.646 438.605 C 453.647 438.605 466.136 439.928 466.138 439.928 C 466.137 439.928 463.260 442.121 463.260 442.121 C 463.262 442.121 483.806 448.045 483.808 448.046 Z"/>
<path fill="#4c4c4c" fill-rule="evenodd" stroke="none" d="M 481.428 459.180 C 481.426 459.178 469.377 437.636 469.376 437.634 C 469.376 437.634 467.925 442.134 467.925 442.134 C 467.925 442.133 462.813 426.742 462.812 426.741 C 462.812 426.742 458.102 435.481 458.102 435.482 C 458.101 435.482 451.008 429.711 451.007 429.711 C 451.007 429.711 448.728 432.279 448.728 432.279 C 448.729 432.280 455.162 438.686 455.162 438.687 C 455.162 438.687 448.334 444.701 448.334 444.701 C 448.335 444.702 462.360 447.758 462.361 447.759 C 462.361 447.759 458.819 449.892 458.819 449.892 C 458.821 449.893 481.425 459.179 481.428 459.180 Z"/>
<path fill="#5f635f" fill-rule="evenodd" stroke="none" d="M 488.007 436.168 C 488.006 436.166 475.285 422.035 475.284 422.034 C 475.283 422.034 474.380 425.277 474.380 425.277 C 474.379 425.276 467.609 414.166 467.609 414.165 C 467.608 414.166 465.503 421.847 465.502 421.847 C 465.502 421.847 458.917 418.614 458.916 418.614 C 458.916 418.614 457.597 421.033 457.597 421.033 C 457.598 421.033 463.781 424.882 463.782 424.882 C 463.782 424.883 459.528 430.814 459.528 430.814 C 459.529 430.814 471.043 430.676 471.044 430.676 C 471.044 430.676 469.145 432.984 469.145 432.984 C 469.147 432.985 488.005 436.167 488.007 436.168 Z"/>
</g>
<g id="TREE_5">
<path fill="#898787" fill-rule="evenodd" stroke="none" d="M 259.073 246.448 C 259.074 246.450 267.349 266.398 267.350 266.400 C 267.350 266.399 269.069 262.637 269.069 262.637 C 269.069 262.638 271.943 276.533 271.944 276.535 C 271.944 276.534 276.927 269.419 276.928 269.419 C 276.928 269.419 282.504 275.157 282.504 275.157 C 282.504 275.157 284.747 273.157 284.747 273.157 C 284.746 273.157 279.809 266.934 279.808 266.933 C 279.809 266.933 286.355 262.403 286.355 262.403 C 286.354 262.402 274.479 258.317 274.477 258.317 C 274.478 258.316 277.773 256.824 277.773 256.824 C 277.771 256.823 259.075 246.449 259.073 246.448 Z"/>
<path fill="#4c4c4c" fill-rule="evenodd" stroke="none" d="M 263.886 236.130 C 263.887 236.132 270.807 259.825 270.807 259.827 C 270.808 259.827 273.229 255.767 273.229 255.766 C 273.229 255.768 274.766 271.912 274.766 271.914 C 274.766 271.913 281.313 264.449 281.314 264.449 C 281.314 264.449 286.935 271.662 286.936 271.663 C 286.936 271.662 289.732 269.670 289.732 269.669 C 289.732 269.669 284.896 261.985 284.896 261.984 C 284.897 261.983 292.897 257.651 292.898 257.651 C 292.897 257.650 279.912 251.531 279.911 251.531 C 279.912 251.530 283.841 250.245 283.841 250.245 C 283.839 250.243 263.888 236.131 263.886 236.130 Z"/>
<path fill="#5f635f" fill-rule="evenodd" stroke="none" d="M 252.321 257.085 C 252.322 257.086 261.556 273.707 261.557 273.709 C 261.557 273.709 263.164 270.751 263.164 270.750 C 263.164 270.752 267.275 283.095 267.275 283.096 C 267.276 283.095 271.048 276.081 271.048 276.081 C 271.049 276.081 276.742 280.706 276.743 280.706 C 276.743 280.706 278.570 278.645 278.570 278.644 C 278.570 278.644 273.405 273.508 273.404 273.508 C 273.405 273.507 278.878 268.679 278.879 268.679 C 278.878 268.679 267.625 266.235 267.624 266.235 C 267.624 266.235 269.991 264.411 269.991 264.411 C 269.990 264.410 252.323 257.086 252.321 257.085 Z"/>
</g>
<g id="TREE_6">
<path fill="#898787" fill-rule="evenodd" stroke="none" d="M 230.416 280.697 C 230.418 280.699 244.132 297.381 244.133 297.383 C 244.134 297.382 244.685 293.283 244.685 293.283 C 244.686 293.284 251.473 305.744 251.474 305.745 C 251.474 305.745 254.175 297.489 254.175 297.488 C 254.176 297.489 261.178 301.358 261.179 301.359 C 261.179 301.359 262.743 298.794 262.743 298.793 C 262.743 298.793 256.210 294.274 256.210 294.273 C 256.210 294.272 261.157 288.036 261.158 288.036 C 261.156 288.036 248.606 287.577 248.605 287.577 C 248.605 287.577 251.324 285.192 251.324 285.191 C 251.322 285.191 230.419 280.698 230.416 280.697 Z"/>
<path fill="#4c4c4c" fill-rule="evenodd" stroke="none" d="M 232.023 269.426 C 232.025 269.428 245.531 290.087 245.532 290.089 C 245.532 290.089 246.669 285.500 246.669 285.500 C 246.670 285.501 252.831 300.502 252.832 300.504 C 252.832 300.503 256.927 291.459 256.928 291.458 C 256.929 291.459 264.403 296.727 264.403 296.727 C 264.404 296.727 266.500 294.008 266.500 294.007 C 266.500 294.007 259.640 288.059 259.639 288.059 C 259.640 288.058 266.036 281.588 266.037 281.588 C 266.036 281.587 251.834 279.505 251.832 279.505 C 251.832 279.505 255.219 277.133 255.219 277.133 C 255.217 277.132 232.026 269.426 232.023 269.426 Z"/>
<path fill="#5f635f" fill-rule="evenodd" stroke="none" d="M 227.046 292.837 C 227.048 292.838 240.713 306.059 240.714 306.060 C 240.715 306.060 241.392 302.762 241.392 302.762 C 241.393 302.763 248.913 313.379 248.914 313.380 C 248.914 313.380 250.485 305.572 250.485 305.571 C 250.486 305.571 257.278 308.342 257.279 308.343 C 257.279 308.342 258.428 305.839 258.428 305.839 C 258.427 305.838 251.993 302.425 251.992 302.425 C 251.993 302.424 255.827 296.214 255.827 296.214 C 255.826 296.214 244.349 297.146 244.348 297.146 C 244.348 297.145 246.083 294.712 246.083 294.712 C 246.081 294.712 227.048 292.837 227.046 292.837 Z"/>
</g>
<g id="TREE_7">
<path fill="#898787" fill-rule="evenodd" stroke="none" d="M 213.781 401.132 C 213.783 401.132 235.339 402.441 235.341 402.441 C 235.341 402.441 232.714 399.246 232.713 399.246 C 232.715 399.246 246.463 402.756 246.464 402.756 C 246.464 402.755 242.254 395.157 242.254 395.156 C 242.255 395.156 249.856 392.661 249.857 392.661 C 249.856 392.660 249.042 389.769 249.042 389.768 C 249.042 389.768 241.284 391.478 241.283 391.478 C 241.283 391.477 240.082 383.608 240.082 383.607 C 240.081 383.608 231.202 392.490 231.202 392.491 C 231.202 392.490 231.305 388.875 231.305 388.874 C 231.303 388.876 213.783 401.130 213.781 401.132 Z"/>
<path fill="#4c4c4c" fill-rule="evenodd" stroke="none" d="M 206.618 392.282 C 206.620 392.282 230.948 396.451 230.950 396.452 C 230.950 396.451 228.362 392.495 228.362 392.495 C 228.364 392.495 243.547 398.193 243.549 398.193 C 243.548 398.193 239.711 389.036 239.710 389.035 C 239.711 389.035 248.658 387.146 248.659 387.146 C 248.659 387.145 248.094 383.759 248.094 383.758 C 248.093 383.758 239.067 384.735 239.066 384.735 C 239.066 384.734 238.680 375.644 238.680 375.643 C 238.679 375.644 227.486 384.631 227.485 384.632 C 227.485 384.631 228.053 380.536 228.053 380.536 C 228.051 380.537 206.620 392.281 206.618 392.282 Z"/>
<path fill="#5f635f" fill-rule="evenodd" stroke="none" d="M 220.380 411.864 C 220.382 411.864 239.369 410.852 239.371 410.852 C 239.370 410.852 237.416 408.111 237.416 408.111 C 237.417 408.111 250.313 409.828 250.314 409.829 C 250.314 409.828 245.664 403.362 245.663 403.362 C 245.664 403.361 252.317 400.272 252.318 400.272 C 252.318 400.271 251.266 397.726 251.266 397.725 C 251.265 397.726 244.385 400.116 244.384 400.116 C 244.384 400.115 242.445 393.079 242.445 393.079 C 242.444 393.080 235.314 402.122 235.313 402.123 C 235.313 402.122 234.712 399.195 234.712 399.195 C 234.710 399.196 220.381 411.863 220.380 411.864 Z"/>
</g>
<g id="TREE_8">
<path fill="#898787" fill-rule="evenodd" stroke="none" d="M 227.628 434.555 C 227.631 434.554 248.880 430.703 248.882 430.703 C 248.882 430.703 245.571 428.224 245.570 428.224 C 245.572 428.224 259.760 428.366 259.761 428.366 C 259.761 428.365 253.866 421.985 253.866 421.984 C 253.866 421.984 260.657 417.754 260.658 417.753 C 260.657 417.753 259.180 415.137 259.179 415.137 C 259.179 415.138 252.050 418.641 252.049 418.642 C 252.049 418.641 249.012 411.283 249.012 411.282 C 249.011 411.283 242.497 422.020 242.497 422.021 C 242.497 422.021 241.738 418.484 241.738 418.484 C 241.736 418.486 227.630 434.553 227.628 434.555 Z"/>
<path fill="#4c4c4c" fill-rule="evenodd" stroke="none" d="M 218.567 427.660 C 218.570 427.660 243.191 425.929 243.194 425.929 C 243.194 425.928 239.740 422.700 239.739 422.700 C 239.741 422.700 255.843 424.626 255.845 424.627 C 255.844 424.626 249.941 416.644 249.941 416.643 C 249.941 416.643 258.183 412.681 258.184 412.681 C 258.183 412.681 256.830 409.525 256.830 409.525 C 256.829 409.525 248.293 412.619 248.292 412.619 C 248.292 412.618 245.758 403.880 245.757 403.879 C 245.757 403.881 237.020 415.270 237.019 415.271 C 237.019 415.270 236.597 411.158 236.597 411.157 C 236.595 411.159 218.569 427.659 218.567 427.660 Z"/>
<path fill="#5f635f" fill-rule="evenodd" stroke="none" d="M 236.589 443.411 C 236.590 443.411 254.793 437.916 254.795 437.916 C 254.795 437.915 252.245 435.717 252.245 435.717 C 252.246 435.717 265.181 434.321 265.182 434.321 C 265.181 434.320 259.128 429.145 259.128 429.144 C 259.128 429.144 264.857 424.562 264.857 424.561 C 264.857 424.561 263.230 422.338 263.230 422.338 C 263.229 422.339 257.115 426.295 257.114 426.296 C 257.114 426.295 253.558 419.921 253.557 419.921 C 253.557 419.922 248.780 430.399 248.780 430.400 C 248.779 430.400 247.499 427.699 247.499 427.699 C 247.498 427.701 236.590 443.410 236.589 443.411 Z"/>
</g>
<g id="TREE_9">
<path fill="#898787" fill-rule="evenodd" stroke="none" d="M 246.448 460.927 C 246.450 460.926 266.398 452.651 266.400 452.650 C 266.399 452.650 262.637 450.931 262.637 450.931 C 262.638 450.931 276.533 448.057 276.535 448.056 C 276.534 448.056 269.419 443.073 269.419 443.072 C 269.419 443.072 275.157 437.496 275.157 437.496 C 275.157 437.496 273.157 435.253 273.157 435.253 C 273.157 435.254 266.934 440.191 266.933 440.192 C 266.933 440.191 262.403 433.645 262.403 433.645 C 262.402 433.646 258.317 445.521 258.317 445.523 C 258.316 445.522 256.824 442.227 256.824 442.227 C 256.823 442.229 246.449 460.925 246.448 460.927 Z"/>
<path fill="#4c4c4c" fill-rule="evenodd" stroke="none" d="M 236.130 456.114 C 236.132 456.113 259.825 449.193 259.827 449.193 C 259.827 449.192 255.767 446.771 255.766 446.771 C 255.768 446.771 271.912 445.234 271.914 445.234 C 271.913 445.234 264.449 438.687 264.449 438.686 C 264.449 438.686 271.662 433.065 271.663 433.064 C 271.662 433.064 269.670 430.268 269.669 430.268 C 269.669 430.268 261.985 435.104 261.984 435.104 C 261.983 435.103 257.651 427.103 257.651 427.102 C 257.650 427.103 251.531 440.088 251.531 440.089 C 251.530 440.088 250.245 436.159 250.245 436.159 C 250.243 436.161 236.131 456.112 236.130 456.114 Z"/>
<path fill="#5f635f" fill-rule="evenodd" stroke="none" d="M 257.085 467.679 C 257.086 467.678 273.707 458.444 273.709 458.443 C 273.709 458.443 270.751 456.836 270.750 456.836 C 270.752 456.836 283.095 452.725 283.096 452.725 C 283.095 452.724 276.081 448.952 276.081 448.952 C 276.081 448.951 280.706 443.258 280.706 443.257 C 280.706 443.257 278.645 441.430 278.644 441.430 C 278.644 441.430 273.508 446.595 273.508 446.596 C 273.507 446.595 268.679 441.122 268.679 441.121 C 268.679 441.122 266.235 452.375 266.235 452.376 C 266.235 452.376 264.411 450.009 264.411 450.009 C 264.410 450.010 257.086 467.677 257.085 467.679 Z"/>
</g>
<g id="TREE_10">
<path fill="#898787" fill-rule="evenodd" stroke="none" d="M 432.875 493.303 C 432.874 493.301 429.295 472.004 429.294 472.002 C 429.294 472.002 426.774 475.282 426.773 475.282 C 426.773 475.281 427.096 461.095 427.096 461.094 C 427.095 461.095 420.641 466.907 420.640 466.908 C 420.640 466.907 416.497 460.063 416.496 460.063 C 416.496 460.063 413.862 461.507 413.861 461.507 C 413.862 461.508 417.274 468.681 417.274 468.682 C 417.274 468.682 409.877 471.625 409.877 471.625 C 409.878 471.625 420.531 478.276 420.532 478.276 C 420.532 478.277 416.986 478.990 416.985 478.990 C 416.987 478.991 432.873 493.302 432.875 493.303 Z"/>
<path fill="#4c4c4c" fill-rule="evenodd" stroke="none" d="M 425.866 502.276 C 425.865 502.273 424.448 477.632 424.448 477.629 C 424.448 477.629 421.176 481.042 421.175 481.042 C 421.176 481.040 423.307 464.964 423.307 464.962 C 423.307 464.963 415.250 470.764 415.249 470.764 C 415.249 470.764 411.393 462.473 411.393 462.472 C 411.392 462.472 408.220 463.785 408.219 463.785 C 408.220 463.786 411.204 472.360 411.204 472.361 C 411.204 472.361 402.434 474.784 402.433 474.784 C 402.434 474.785 413.711 483.666 413.712 483.667 C 413.712 483.667 409.594 484.037 409.594 484.037 C 409.595 484.039 425.864 502.274 425.866 502.276 Z"/>
<path fill="#5f635f" fill-rule="evenodd" stroke="none" d="M 441.845 484.457 C 441.844 484.455 436.582 466.184 436.582 466.182 C 436.582 466.182 434.351 468.703 434.351 468.704 C 434.351 468.702 433.120 455.751 433.120 455.750 C 433.119 455.750 427.867 461.737 427.867 461.738 C 427.866 461.737 423.358 455.951 423.357 455.950 C 423.357 455.950 421.114 457.549 421.113 457.549 C 421.114 457.549 424.992 463.714 424.992 463.715 C 424.992 463.715 418.573 467.190 418.573 467.190 C 418.574 467.190 428.989 472.100 428.991 472.101 C 428.990 472.101 426.273 473.346 426.273 473.347 C 426.275 473.348 441.843 484.456 441.845 484.457 Z"/>
</g>
<g id="TREE_11">
<path fill="#898787" fill-rule="evenodd" stroke="none" d="M 396.301 510.653 C 396.302 510.650 398.429 489.160 398.429 489.158 C 398.428 489.158 395.137 491.662 395.136 491.662 C 395.137 491.661 399.166 478.056 399.166 478.055 C 399.165 478.055 391.413 481.973 391.412 481.973 C 391.412 481.972 389.207 474.282 389.207 474.281 C 389.207 474.281 386.286 474.985 386.286 474.985 C 386.286 474.986 387.699 482.802 387.699 482.803 C 387.698 482.803 379.789 483.704 379.789 483.704 C 379.789 483.705 388.328 492.915 388.329 492.916 C 388.328 492.916 384.719 492.675 384.719 492.675 C 384.720 492.677 396.300 510.651 396.301 510.653 Z"/>
<path fill="#4c4c4c" fill-rule="evenodd" stroke="none" d="M 387.186 517.475 C 387.186 517.472 392.277 493.320 392.277 493.318 C 392.277 493.318 388.225 495.753 388.224 495.754 C 388.225 495.752 394.496 480.796 394.496 480.795 C 394.495 480.795 385.200 484.282 385.199 484.282 C 385.199 484.281 383.651 475.270 383.651 475.269 C 383.650 475.269 380.244 475.704 380.244 475.704 C 380.244 475.705 380.877 484.762 380.877 484.763 C 380.876 484.763 371.778 484.803 371.777 484.803 C 371.778 484.804 380.333 496.330 380.334 496.331 C 380.334 496.331 376.263 495.609 376.263 495.609 C 376.264 495.611 387.185 517.472 387.186 517.475 Z"/>
<path fill="#5f635f" fill-rule="evenodd" stroke="none" d="M 407.276 504.466 C 407.276 504.464 406.987 485.453 406.987 485.451 C 406.987 485.451 404.174 487.300 404.173 487.300 C 404.174 487.299 406.380 474.477 406.380 474.476 C 406.379 474.476 399.742 478.877 399.741 478.878 C 399.741 478.877 396.906 472.111 396.906 472.111 C 396.906 472.111 394.322 473.065 394.322 473.065 C 394.322 473.066 396.449 480.032 396.449 480.033 C 396.448 480.033 389.344 481.703 389.343 481.704 C 389.344 481.704 398.109 489.173 398.110 489.173 C 398.109 489.173 395.161 489.663 395.161 489.663 C 395.162 489.665 407.275 504.465 407.276 504.466 Z"/>
</g>
</g>
<g id="PLANET">
<path fill="#3a3a3a" fill-rule="evenodd" stroke="none" d="M 360.000 240.494 C 426.146 240.494 479.506 293.854 479.506 360.000 C 479.506 426.146 426.146 479.506 360.000 479.506 C 293.854 479.506 240.494 426.146 240.494 360.000 C 240.494 293.854 293.854 240.494 360.000 240.494 Z"/>
<path id="PlanetPath" fill="#2b2b2b" fill-rule="evenodd" stroke="none" d="M 360.000 266.085 C 411.981 266.085 453.915 308.019 453.915 360.000 C 453.915 411.981 411.981 453.915 360.000 453.915 C 308.019 453.915 266.085 411.981 266.085 360.000 C 266.085 308.019 308.019 266.085 360.000 266.085 Z"/>
<text y="50" x="0" textLength="300" lengthAdjust="spacing" fill="white">
    <textPath alignment-baseline="top" xlink:href="#PlanetPath">
        C++ - Python - Javascript - Node.js  - MongoDB - SQL - React - Bootstrap - Lua - CSS3 -
    </textPath>
</text>
</g>
</g>
</svg>
