<?xml version="1.0" encoding="utf-8"?>
<!-- Generator: Moho 13.0.3 build 643 -->
<!DOCTYPE svg PUBLIC "-//W3C//DTD SVG 1.1//EN" "http://www.w3.org/Graphics/SVG/1.1/DTD/svg11.dtd">
<svg version="1.1" id="Frame_1" xmlns="http://www.w3.org/2000/svg" xmlns:xlink="http://www.w3.org/1999/xlink" width="720px" height="720px">
<g id="Layer_14">
<g id="cloud">
<path id="_last_brush_shape_" fill="#ffffff" fill-rule="evenodd" fill-opacity="0.400000" stroke="none" d="M 292.794 560.690 C 275.892 553.138 255.161 549.164 242.795 532.469 C 234.824 521.707 231.615 503.651 245.127 496.003 C 245.652 495.706 246.228 495.462 246.824 495.375 C 261.235 493.270 256.035 506.202 264.566 511.502 C 268.441 513.909 273.435 510.434 277.469 512.307 C 281.048 513.969 282.075 518.530 285.533 520.371 C 288.504 521.952 292.234 520.407 295.210 521.983 C 298.289 523.613 299.125 528.028 302.468 529.240 C 309.890 531.930 314.718 529.810 317.653 539.516 C 317.879 540.381 318.040 541.305 318.161 542.182 C 318.529 544.737 318.394 543.674 318.597 545.366 C 319.930 545.516 321.255 545.703 322.584 545.890 C 323.433 545.996 324.306 546.141 325.206 546.312 C 326.177 546.445 327.173 546.641 328.177 546.866 C 329.211 547.027 330.271 547.276 331.316 547.558 C 332.372 547.750 333.429 548.054 334.446 548.394 C 335.444 548.606 336.450 548.973 337.386 549.378 C 338.398 549.695 339.216 550.089 339.958 550.517 C 356.208 560.939 322.422 573.339 314.102 572.955 C 303.483 572.465 301.032 564.371 292.794 560.690 M 485.520 521.969 C 480.060 531.406 494.443 538.647 495.198 545.353 C 497.369 564.649 473.765 553.107 466.867 553.038 C 462.068 552.990 457.200 555.071 452.460 553.421 C 434.420 547.139 441.465 520.008 449.015 508.672 C 456.803 496.981 451.510 484.683 459.711 474.393 C 472.172 458.761 498.510 445.471 504.285 425.006 C 507.213 414.631 488.515 411.197 487.524 398.393 C 486.525 385.499 500.385 374.517 510.506 369.157 C 511.521 368.620 512.602 368.152 513.732 367.945 C 525.419 365.810 543.936 370.578 536.897 386.380 C 536.452 387.228 535.900 388.042 535.440 388.675 C 535.136 389.132 534.700 389.716 534.700 389.716 C 536.442 391.197 535.391 390.278 537.810 392.521 C 545.195 401.207 537.485 403.842 537.121 411.489 C 536.785 418.548 543.024 421.307 538.925 429.734 C 538.314 430.834 537.537 431.916 536.754 432.904 C 536.082 433.873 535.361 434.748 534.767 435.445 C 534.441 435.858 533.897 436.487 533.897 436.487 C 538.615 445.920 523.983 471.390 514.716 475.865 C 510.788 477.290 512.463 476.729 509.708 477.615 C 511.943 478.273 510.540 477.849 513.900 478.928 C 515.053 479.286 516.276 479.739 517.373 480.226 C 551.621 497.488 491.161 512.216 485.520 521.969 M 206.332 442.319 C 199.003 437.877 201.138 433.334 197.629 427.641 C 194.754 422.976 187.378 421.958 184.030 416.476 C 181.228 411.889 183.981 406.337 181.500 401.838 C 178.976 397.262 175.559 395.403 174.241 389.743 C 170.233 372.526 180.734 346.545 198.155 340.988 C 198.770 340.792 199.404 340.647 200.042 340.550 C 202.863 340.122 205.676 339.834 208.534 340.026 C 233.422 341.694 216.677 368.243 208.915 378.451 C 210.035 379.244 209.329 378.737 211.034 380.005 C 211.665 380.464 212.329 380.996 212.964 381.556 C 213.626 382.073 214.276 382.674 214.837 383.275 C 219.232 388.622 214.876 392.691 216.981 397.803 C 219.430 403.754 226.653 401.838 226.138 410.365 C 225.847 415.199 220.522 417.004 220.092 421.632 C 220.076 422.108 220.111 422.593 220.150 422.978 C 220.167 423.249 220.208 423.608 220.208 423.608 C 221.754 423.976 220.786 423.737 223.111 424.356 C 223.909 424.560 224.755 424.829 225.514 425.130 C 233.863 428.966 232.882 438.361 225.672 442.923 C 219.677 446.716 212.266 445.917 206.332 442.319 M 453.306 185.284 C 461.407 183.952 471.640 186.913 475.819 194.573 C 477.486 197.628 476.354 202.591 479.045 205.056 C 495.014 219.676 516.710 224.370 530.155 243.785 C 535.689 251.777 536.703 278.369 525.046 281.374 C 511.022 284.989 504.460 267.418 494.371 261.502 C 486.106 256.656 479.196 254.443 472.086 247.366 C 467.025 242.327 459.389 230.636 452.436 228.443 C 440.734 224.752 432.184 229.535 421.701 218.725 C 409.804 206.458 410.639 187.440 426.968 179.844 C 427.621 179.540 428.330 179.320 429.047 179.255 C 433.763 178.828 437.851 179.324 441.412 182.595 C 442.095 183.313 442.707 184.173 443.242 185.024 C 443.798 185.773 444.263 186.551 444.626 187.188 C 444.850 187.542 445.175 188.124 445.175 188.124 C 446.948 187.385 448.738 186.735 450.548 186.091 C 451.436 185.763 452.396 185.485 453.306 185.284 M 292.471 140.076 C 293.089 139.894 293.732 139.773 294.376 139.751 C 312.966 139.130 340.355 156.049 321.130 175.203 C 308.819 187.467 293.147 185.224 278.252 191.361 C 259.114 199.247 243.189 224.740 220.193 218.783 C 208.683 215.802 199.145 202.716 208.463 192.335 C 213.064 187.208 220.247 186.710 225.189 181.352 C 229.048 177.170 232.238 172.427 235.558 167.823 C 237.100 165.684 240.349 158.891 240.349 161.528 C 258.928 156.521 274.307 145.445 292.471 140.076 Z"/>
</g>
</g>
</svg>
